<svg id="svg" version="1.1" xmlns="http://www.w3.org/2000/svg" xmlns:xlink="http://www.w3.org/1999/xlink" width="400" height="294.8207171314741" viewBox="0, 0, 400,294.8207171314741"><g id="svgg"><path id="path0" d="M154.580 110.587 C 154.084 110.725,153.760 111.106,153.568 111.776 C 153.110 113.370,153.905 113.688,160.324 114.481 C 164.436 114.990,165.348 115.523,166.078 117.847 C 166.282 118.496,166.571 119.181,166.720 119.370 C 166.869 119.559,167.307 120.687,167.693 121.877 C 168.079 123.067,168.746 124.971,169.175 126.106 C 169.605 127.242,170.328 129.233,170.782 130.531 C 172.403 135.165,172.881 136.447,173.421 137.611 C 173.722 138.260,174.065 139.240,174.184 139.790 C 174.304 140.339,174.717 141.468,175.103 142.297 C 175.489 143.127,175.811 144.071,175.818 144.395 C 175.824 144.720,176.156 145.649,176.555 146.460 C 176.954 147.271,177.282 148.203,177.283 148.529 C 177.285 148.856,177.548 149.612,177.868 150.209 C 178.187 150.805,178.610 151.932,178.806 152.712 C 179.002 153.492,179.392 154.528,179.671 155.015 C 179.950 155.501,180.272 156.364,180.387 156.932 C 180.501 157.500,180.834 158.363,181.126 158.850 C 181.418 159.336,181.813 160.332,182.003 161.062 C 182.193 161.792,182.518 162.655,182.725 162.979 C 182.932 163.304,183.319 164.317,183.584 165.231 C 183.950 166.488,184.229 166.935,184.733 167.070 C 185.882 167.378,224.084 167.282,224.907 166.969 C 226.092 166.518,226.050 163.556,224.853 163.095 C 224.036 162.781,198.300 163.257,193.068 163.683 C 189.892 163.941,188.322 163.253,187.759 161.357 C 187.639 160.951,187.295 160.072,186.995 159.403 C 185.700 156.513,185.694 154.692,186.979 154.005 C 187.289 153.839,195.454 153.576,206.368 153.380 C 218.447 153.163,225.355 152.931,225.593 152.735 C 226.191 152.244,227.175 149.858,227.619 147.826 C 227.845 146.793,228.211 145.532,228.434 145.024 C 228.656 144.516,229.103 143.038,229.426 141.740 C 229.749 140.442,230.363 138.186,230.790 136.726 C 231.217 135.265,231.957 132.677,232.434 130.973 C 232.911 129.270,233.784 126.235,234.375 124.229 C 235.167 121.539,235.363 120.495,235.119 120.252 C 234.576 119.709,203.125 120.112,182.046 120.931 C 174.874 121.210,173.372 121.148,172.600 120.538 C 171.920 120.001,170.918 118.231,170.390 116.635 C 169.196 113.024,168.193 111.069,167.348 110.707 C 166.446 110.320,155.893 110.221,154.580 110.587 M229.612 122.971 C 230.134 123.548,229.657 127.255,228.950 128.130 C 228.800 128.315,228.515 129.263,228.317 130.236 C 227.477 134.361,227.299 134.451,219.993 134.487 C 212.747 134.524,213.209 134.897,213.422 129.182 C 213.504 127.003,213.570 124.948,213.570 124.614 C 213.568 122.811,214.832 122.559,224.364 122.466 C 228.665 122.423,229.159 122.471,229.612 122.971 M210.173 123.595 C 210.793 124.280,210.798 124.616,210.266 129.499 C 209.619 135.432,209.657 135.403,202.244 135.545 C 194.725 135.688,194.687 135.670,194.062 131.779 C 193.899 130.768,193.575 128.883,193.342 127.591 C 192.748 124.308,192.812 124.256,198.119 123.717 C 200.370 123.489,202.478 123.254,202.802 123.196 C 205.078 122.785,209.666 123.034,210.173 123.595 M189.475 124.513 C 190.127 124.810,190.242 125.190,190.840 129.024 C 191.867 135.595,191.711 135.820,185.906 136.157 C 183.913 136.273,182.213 136.481,182.127 136.620 C 181.870 137.036,180.120 136.906,179.425 136.420 C 178.826 136.001,176.696 131.979,176.696 131.268 C 176.696 131.096,176.364 130.167,175.959 129.204 C 174.704 126.222,174.989 124.678,176.844 124.407 C 178.835 124.115,188.786 124.199,189.475 124.513 M225.582 137.438 C 225.780 137.695,225.869 138.105,225.779 138.348 C 225.689 138.591,225.364 139.930,225.058 141.322 C 224.751 142.714,224.306 144.229,224.068 144.688 C 223.830 145.146,223.548 146.037,223.441 146.666 C 223.149 148.395,222.589 148.607,217.699 148.836 C 212.912 149.060,211.524 148.632,211.920 147.053 C 212.010 146.692,212.221 144.842,212.388 142.942 C 212.868 137.463,212.869 137.462,218.258 137.124 C 220.465 136.986,222.670 136.759,223.156 136.620 C 224.105 136.349,224.967 136.639,225.582 137.438 M208.464 137.882 L 209.292 138.597 209.194 143.109 C 209.050 149.736,209.083 149.705,202.168 149.705 C 196.586 149.705,196.839 149.834,196.293 146.712 C 194.960 139.104,195.182 138.492,199.445 138.019 C 200.967 137.850,202.876 137.605,203.687 137.475 C 206.508 137.022,207.573 137.113,208.464 137.882 M191.164 138.945 C 192.071 139.431,193.215 144.600,193.215 148.216 C 193.215 149.864,192.651 150.099,188.434 150.203 C 183.975 150.313,183.974 150.312,181.843 144.100 C 181.565 143.289,181.168 142.227,180.960 141.740 C 179.746 138.889,180.152 138.643,186.073 138.643 C 188.597 138.643,190.849 138.777,191.164 138.945 M219.845 170.517 C 218.339 170.836,217.458 171.582,217.075 172.860 C 216.124 176.035,219.256 178.866,222.159 177.456 C 224.015 176.554,224.231 176.261,224.399 174.404 C 224.649 171.651,222.630 169.928,219.845 170.517 M186.656 170.946 C 184.303 172.272,184.408 176.023,186.831 177.234 C 190.871 179.251,194.552 174.443,191.304 171.392 C 190.362 170.507,187.860 170.267,186.656 170.946 M30.812 192.135 C 30.716 192.515,30.684 196.796,30.739 201.649 L 30.840 210.472 31.758 212.416 C 35.279 219.870,47.174 220.142,51.316 212.865 L 52.342 211.062 52.453 201.686 C 52.579 190.961,52.687 191.445,50.168 191.445 C 47.220 191.445,47.370 190.961,47.180 201.082 C 47.000 210.741,46.927 211.159,45.150 212.832 C 43.636 214.256,39.746 214.174,38.182 212.684 C 36.197 210.794,36.157 210.574,36.044 200.832 L 35.942 192.077 35.036 191.761 C 33.277 191.148,31.009 191.349,30.812 192.135 M60.398 191.788 L 59.587 192.085 59.587 204.128 L 59.587 216.172 60.537 216.971 L 61.488 217.771 66.363 217.620 C 76.843 217.296,81.629 213.971,82.596 206.344 C 83.596 198.455,79.755 192.732,72.784 191.723 C 70.329 191.368,61.420 191.415,60.398 191.788 M89.159 191.805 L 88.496 192.126 88.496 204.120 L 88.496 216.114 89.367 216.948 C 90.155 217.704,90.371 217.765,91.641 217.591 C 93.640 217.317,93.647 217.299,93.752 212.255 C 93.875 206.315,93.398 206.719,100.145 206.839 C 106.826 206.958,106.490 206.665,106.490 212.371 C 106.490 217.282,106.840 217.935,109.275 217.570 C 111.258 217.272,111.209 217.606,111.209 204.142 L 111.209 192.021 110.453 191.733 C 109.464 191.357,107.779 191.366,107.060 191.751 C 106.538 192.030,106.490 192.404,106.490 196.144 C 106.490 202.152,105.699 202.711,97.816 202.277 C 93.748 202.052,93.805 202.136,93.805 196.420 L 93.805 192.021 93.049 191.733 C 92.066 191.360,90.004 191.398,89.159 191.805 M126.041 191.796 C 125.658 191.984,125.189 192.683,124.911 193.478 C 124.650 194.226,124.115 195.670,123.723 196.687 C 123.330 197.704,123.009 198.705,123.009 198.911 C 123.009 199.117,122.739 199.811,122.408 200.454 C 122.078 201.097,121.661 202.220,121.480 202.950 C 121.300 203.680,120.961 204.659,120.726 205.126 C 120.492 205.593,120.100 206.655,119.856 207.486 C 119.611 208.317,119.244 209.196,119.039 209.440 C 118.835 209.683,118.509 210.530,118.316 211.323 C 118.123 212.115,117.720 213.244,117.421 213.832 C 115.738 217.131,117.418 218.745,120.820 217.098 C 121.852 216.598,122.097 216.313,122.266 215.412 C 122.872 212.183,123.580 211.799,128.928 211.799 C 133.941 211.799,133.643 211.643,135.211 215.085 C 136.295 217.464,136.636 217.699,138.988 217.699 C 140.333 217.699,141.451 216.440,140.884 215.564 C 140.646 215.197,140.290 214.233,140.094 213.422 C 139.897 212.611,139.510 211.482,139.233 210.914 C 138.956 210.347,138.569 209.218,138.372 208.407 C 138.176 207.596,137.829 206.646,137.603 206.296 C 137.376 205.946,137.036 205.017,136.847 204.231 C 136.659 203.445,136.331 202.522,136.119 202.180 C 135.907 201.838,135.523 200.831,135.264 199.943 C 135.006 199.056,134.543 197.835,134.235 197.230 C 133.927 196.625,133.590 195.641,133.486 195.042 C 133.382 194.443,132.935 193.422,132.491 192.773 L 131.684 191.593 129.190 191.533 C 127.819 191.501,126.401 191.619,126.041 191.796 M153.905 191.650 C 153.261 191.817,152.616 193.036,151.751 195.722 C 151.385 196.858,150.599 199.049,150.004 200.590 C 149.410 202.131,148.675 204.122,148.372 205.015 C 148.069 205.907,147.404 207.765,146.894 209.145 C 146.384 210.524,145.716 212.420,145.408 213.358 C 145.100 214.296,144.708 215.326,144.536 215.646 C 144.139 216.388,145.336 217.699,146.411 217.699 C 148.140 217.699,149.140 216.933,149.809 215.097 C 150.956 211.953,151.260 211.799,156.343 211.799 C 161.572 211.799,161.962 211.981,162.739 214.775 C 163.332 216.908,164.578 217.859,166.451 217.608 C 168.437 217.342,168.894 216.397,168.009 214.391 C 167.774 213.858,167.260 212.426,166.865 211.209 C 166.471 209.993,165.728 207.869,165.214 206.490 C 164.700 205.111,164.027 203.186,163.720 202.212 C 162.660 198.854,161.875 196.604,161.345 195.407 C 161.053 194.746,160.723 193.726,160.613 193.139 C 160.335 191.653,156.854 190.880,153.905 191.650 M174.926 191.709 L 174.189 191.914 174.107 203.701 C 174.014 217.013,173.985 216.697,175.370 217.276 C 178.224 218.469,178.936 217.587,179.198 212.537 C 179.433 207.991,179.466 207.838,180.315 207.486 C 181.901 206.828,184.228 208.385,185.841 211.183 C 188.852 216.407,189.794 217.368,192.141 217.610 C 193.695 217.770,193.727 217.758,194.037 216.869 C 194.369 215.916,194.325 215.821,191.781 211.988 C 191.365 211.361,190.887 210.615,190.719 210.330 C 189.938 209.007,189.187 208.050,188.379 207.348 C 187.249 206.367,187.633 205.148,189.382 204.164 C 193.358 201.930,193.605 195.504,189.814 192.945 C 187.835 191.610,178.170 190.807,174.926 191.709 M211.504 191.709 L 210.767 191.914 210.690 204.033 C 210.594 219.154,209.848 217.562,217.010 217.524 C 223.029 217.493,225.713 216.967,228.107 215.352 C 235.913 210.084,235.403 196.039,227.286 192.750 C 224.360 191.564,214.391 190.906,211.504 191.709 M240.118 191.710 L 239.381 191.917 239.396 201.489 L 239.412 211.062 240.334 212.832 C 242.793 217.554,249.065 219.474,254.665 217.219 C 259.845 215.134,260.821 212.587,260.980 200.737 C 261.107 191.185,261.218 191.607,258.584 191.599 C 255.766 191.590,255.923 191.064,255.744 201.121 C 255.577 210.526,255.474 211.189,253.947 212.591 C 252.124 214.264,248.846 214.383,246.838 212.849 C 244.905 211.373,244.785 210.734,244.575 200.787 C 244.364 190.807,244.242 190.557,240.118 191.710 M268.321 191.912 C 268.053 192.609,268.113 216.608,268.383 217.033 C 268.882 217.818,271.206 217.826,272.113 217.046 C 272.945 216.330,272.949 216.309,273.126 211.827 C 273.285 207.798,273.365 207.281,273.888 206.899 C 274.887 206.169,275.230 206.502,278.612 211.489 C 282.505 217.229,282.730 217.429,285.511 217.628 C 288.582 217.848,288.838 217.068,286.647 214.160 C 285.798 213.032,284.771 211.639,284.366 211.065 C 283.960 210.490,282.859 208.993,281.919 207.739 C 280.979 206.484,280.138 205.125,280.050 204.720 C 279.962 204.314,279.853 203.850,279.808 203.687 C 279.694 203.271,280.474 201.790,281.383 200.696 C 282.715 199.094,284.378 196.838,286.206 194.152 C 286.573 193.613,287.115 192.930,287.412 192.635 C 288.125 191.923,287.735 191.704,285.441 191.528 C 282.459 191.300,281.765 191.867,278.511 197.198 C 274.400 203.932,273.473 203.850,273.100 196.717 C 272.825 191.477,272.808 191.445,270.182 191.445 C 268.920 191.445,268.455 191.562,268.321 191.912 M300.968 191.746 C 300.254 192.033,299.807 192.942,298.504 196.755 C 296.840 201.623,296.224 203.310,295.774 204.231 C 295.523 204.743,295.122 205.760,294.881 206.490 C 294.640 207.220,294.027 208.945,293.518 210.324 C 291.048 217.019,291.069 217.583,293.784 217.508 C 295.691 217.456,296.358 216.867,297.340 214.370 C 298.322 211.876,298.507 211.799,303.540 211.799 C 308.585 211.799,308.909 211.931,309.585 214.258 C 310.276 216.633,311.411 217.699,313.251 217.699 C 315.361 217.699,315.857 216.944,315.216 214.703 C 314.485 212.144,313.232 208.496,312.643 207.208 C 312.341 206.548,312.094 205.751,312.094 205.435 C 312.094 205.120,311.779 204.266,311.393 203.537 C 311.007 202.809,310.593 201.748,310.472 201.180 C 310.351 200.612,310.023 199.683,309.742 199.115 C 309.461 198.547,309.084 197.485,308.904 196.755 C 308.723 196.025,308.305 194.902,307.975 194.259 C 307.645 193.616,307.375 192.850,307.375 192.556 C 307.375 191.556,302.858 190.986,300.968 191.746 M328.269 191.820 C 327.700 192.046,327.428 192.416,327.289 193.154 C 327.184 193.716,326.775 194.906,326.381 195.797 C 325.986 196.689,325.664 197.545,325.664 197.700 C 325.664 197.855,325.347 198.801,324.959 199.802 C 322.696 205.651,319.156 216.292,319.311 216.780 C 320.062 219.148,323.904 217.533,324.907 214.427 C 325.723 211.902,325.952 211.809,331.356 211.804 C 336.445 211.799,336.634 211.896,337.811 215.124 C 338.725 217.631,341.067 218.547,342.612 217.002 C 343.364 216.250,343.227 215.240,341.991 212.406 C 341.747 211.847,340.895 209.458,340.097 207.096 C 335.581 193.726,335.113 192.461,334.495 191.962 C 333.761 191.367,329.648 191.273,328.269 191.820 M349.410 191.842 C 348.840 192.268,348.817 192.677,348.737 203.954 C 348.635 218.160,348.523 217.707,352.061 217.448 C 353.516 217.341,353.531 217.256,353.687 208.585 C 353.878 197.989,353.923 197.911,357.168 202.616 C 358.646 204.760,359.517 206.069,360.914 208.242 C 366.754 217.325,366.856 217.429,370.053 217.634 C 372.776 217.809,372.558 218.970,372.558 204.277 C 372.557 190.585,372.691 191.323,370.235 191.500 C 367.611 191.690,367.725 191.340,367.554 199.710 C 367.325 210.917,367.037 210.954,360.636 200.590 C 360.085 199.698,359.358 198.615,359.021 198.183 C 358.683 197.752,358.407 197.271,358.407 197.113 C 358.407 196.956,358.198 196.654,357.942 196.441 C 357.686 196.229,357.157 195.449,356.768 194.709 C 355.303 191.925,354.864 191.610,352.292 191.500 C 350.598 191.427,349.846 191.517,349.410 191.842 M184.871 195.310 C 189.154 197.384,187.274 203.241,182.324 203.244 C 179.541 203.245,179.351 202.991,179.351 199.257 C 179.351 194.696,181.067 193.469,184.871 195.310 M71.989 195.851 C 78.781 197.856,79.340 209.251,72.820 212.810 C 70.695 213.970,66.666 214.242,65.487 213.305 L 64.749 212.719 64.662 204.790 L 64.575 196.862 65.349 196.088 C 66.431 195.007,68.838 194.921,71.989 195.851 M222.643 195.729 C 231.725 198.426,229.573 213.253,220.019 213.806 C 215.366 214.075,215.263 213.856,215.393 203.880 L 215.487 196.698 216.372 195.991 C 217.447 195.131,220.237 195.014,222.643 195.729 M331.976 198.398 C 332.641 199.269,333.127 200.339,333.351 201.422 C 333.541 202.343,333.947 203.590,334.252 204.192 C 334.984 205.631,334.977 206.968,334.238 207.364 C 333.236 207.900,328.773 207.748,328.060 207.153 L 327.441 206.637 328.053 204.277 C 328.389 202.979,328.773 201.785,328.905 201.622 C 329.038 201.460,329.298 200.730,329.483 200.000 C 330.336 196.649,330.540 196.518,331.976 198.398 M305.174 200.124 C 305.617 201.247,306.233 203.171,306.541 204.401 L 307.101 206.637 306.468 207.153 C 305.986 207.546,305.294 207.669,303.581 207.665 C 300.079 207.659,299.116 206.823,300.113 204.657 C 300.359 204.124,300.777 202.824,301.042 201.770 C 302.264 196.914,303.683 196.348,305.174 200.124 M129.555 198.451 C 129.971 198.897,130.529 199.993,130.795 200.885 C 131.062 201.777,131.571 203.403,131.927 204.499 C 132.782 207.126,132.503 207.463,129.347 207.623 C 124.953 207.844,124.583 207.458,125.661 203.779 C 127.279 198.258,128.200 196.998,129.555 198.451 M157.612 198.746 C 157.873 199.355,158.220 200.317,158.382 200.885 C 158.544 201.453,158.944 202.647,159.270 203.540 C 160.554 207.053,160.102 207.670,156.247 207.670 C 152.354 207.670,151.765 206.421,153.811 202.507 C 154.065 202.021,154.274 201.407,154.275 201.143 C 154.287 198.221,156.656 196.518,157.612 198.746 " stroke="none" fill="#2e4e97" fill-rule="evenodd"></path><path id="path1" d="M0.000 147.493 L 0.000 294.985 200.000 294.985 L 400.000 294.985 400.000 147.493 L 400.000 0.000 200.000 0.000 L 0.000 0.000 0.000 147.493 M206.302 71.703 C 207.548 72.682,207.165 76.932,205.700 78.398 C 205.303 78.794,205.065 79.204,205.171 79.309 C 205.422 79.558,213.955 79.422,218.671 79.094 C 224.278 78.704,224.826 79.028,224.001 82.251 C 223.780 83.114,223.464 85.020,223.298 86.486 C 223.131 87.953,222.740 90.166,222.428 91.405 C 222.116 92.644,221.777 94.587,221.674 95.723 C 221.435 98.378,220.398 102.657,219.838 103.304 C 219.324 103.898,217.462 103.810,212.242 102.945 C 208.501 102.325,200.886 101.856,200.884 102.246 C 200.817 115.895,200.755 117.076,200.066 117.765 C 199.409 118.422,199.225 118.440,191.512 118.584 L 183.628 118.732 192.773 118.888 C 203.069 119.064,203.070 119.064,202.624 118.231 C 202.427 117.864,202.348 115.738,202.410 112.479 L 202.507 107.309 203.490 106.489 C 204.724 105.460,205.460 105.388,218.658 105.014 C 228.684 104.730,229.831 104.803,230.191 105.742 C 230.421 106.340,229.220 115.319,228.764 116.410 L 228.334 117.440 229.337 117.860 C 229.945 118.114,231.305 118.272,232.795 118.263 C 237.984 118.229,238.085 119.274,234.058 131.416 C 233.682 132.552,233.162 134.401,232.903 135.525 C 232.644 136.650,232.317 137.712,232.177 137.885 C 232.037 138.059,231.760 138.997,231.562 139.971 C 231.363 140.944,231.016 142.100,230.791 142.540 C 230.565 142.980,230.181 144.289,229.936 145.449 C 229.692 146.610,229.300 147.909,229.065 148.337 C 228.829 148.765,228.483 149.910,228.295 150.881 C 228.026 152.271,227.725 152.874,226.882 153.712 L 225.811 154.776 214.185 154.969 C 207.790 155.075,199.560 155.164,195.896 155.166 C 188.430 155.171,187.906 155.237,187.906 156.176 C 187.906 157.262,188.797 159.903,189.584 161.151 L 190.328 162.330 200.695 162.145 C 206.397 162.044,211.991 161.828,213.127 161.666 C 214.263 161.504,217.532 161.282,220.391 161.172 L 225.591 160.971 226.097 161.744 C 227.548 163.958,226.933 167.588,224.899 168.816 L 223.543 169.635 224.286 170.220 C 224.694 170.541,225.115 171.199,225.221 171.682 C 225.327 172.165,225.537 172.635,225.686 172.728 C 226.053 172.955,226.035 175.140,225.664 175.369 C 225.501 175.469,225.369 175.814,225.369 176.135 C 225.369 177.555,223.231 179.161,221.166 179.293 C 216.123 179.614,213.388 174.873,216.365 170.973 C 217.870 169.001,218.022 169.027,204.720 169.027 C 191.997 169.027,191.431 169.094,192.718 170.454 C 196.807 174.775,191.546 181.521,186.211 178.799 C 183.369 177.350,182.699 172.202,185.094 170.214 C 185.686 169.723,185.262 168.971,183.960 168.203 C 183.251 167.784,182.887 167.312,182.741 166.620 C 182.626 166.078,182.297 165.236,182.010 164.749 C 181.723 164.263,181.398 163.362,181.289 162.749 C 181.180 162.136,180.781 161.178,180.403 160.621 C 180.025 160.064,179.627 159.017,179.519 158.294 C 179.411 157.572,179.141 156.830,178.920 156.647 C 178.699 156.463,178.353 155.623,178.150 154.779 C 177.948 153.935,177.551 152.913,177.267 152.507 C 176.983 152.102,176.661 151.239,176.551 150.590 C 176.442 149.941,176.112 149.012,175.818 148.525 C 175.525 148.038,175.188 147.176,175.069 146.608 C 174.951 146.040,174.538 144.949,174.152 144.184 C 173.767 143.419,173.451 142.617,173.451 142.403 C 173.451 142.188,173.181 141.487,172.852 140.844 C 172.522 140.201,172.038 138.945,171.777 138.053 C 171.516 137.161,171.131 136.165,170.921 135.841 C 170.711 135.516,170.379 134.587,170.183 133.776 C 169.987 132.965,169.708 132.149,169.563 131.963 C 169.312 131.641,168.494 129.381,167.229 125.516 C 166.911 124.543,166.468 123.348,166.245 122.861 C 166.022 122.375,165.627 121.339,165.367 120.561 C 164.583 118.215,163.760 116.835,163.050 116.675 C 162.042 116.448,157.013 115.708,154.944 115.483 C 151.727 115.132,150.833 113.617,152.230 110.880 C 153.183 109.012,153.875 108.850,160.899 108.850 C 169.113 108.850,169.480 109.010,170.955 113.243 C 173.238 119.794,173.398 119.949,177.052 119.148 C 178.182 118.901,178.646 118.702,178.238 118.641 C 177.245 118.493,176.870 117.647,175.988 113.569 C 175.550 111.541,174.904 108.621,174.552 107.080 C 173.823 103.880,173.742 102.247,174.284 101.704 C 174.720 101.267,175.277 101.262,186.578 101.579 C 198.319 101.908,199.979 101.295,188.938 100.708 C 183.351 100.411,183.271 100.288,183.902 92.996 C 184.137 90.277,184.423 86.611,184.538 84.849 C 184.844 80.128,184.558 80.320,191.776 80.021 C 198.101 79.760,199.035 79.518,198.026 78.403 C 197.116 77.399,197.072 72.201,197.968 71.574 C 199.094 70.785,205.257 70.880,206.302 71.703 M220.863 123.524 C 217.568 123.622,215.782 124.176,215.782 125.099 C 215.782 125.436,216.584 125.527,219.972 125.572 C 224.963 125.639,225.519 125.830,225.252 127.388 C 224.765 130.237,224.705 131.857,225.071 132.298 C 225.492 132.805,226.223 132.165,226.246 131.268 C 226.252 131.025,226.458 130.441,226.703 129.971 C 227.166 129.084,228.023 125.399,228.023 124.294 C 228.024 123.494,227.478 123.288,225.566 123.366 C 224.727 123.401,222.611 123.472,220.863 123.524 M206.476 124.964 C 206.152 125.056,206.053 125.373,206.134 126.062 C 206.548 129.609,205.126 130.587,198.746 131.142 C 194.732 131.492,196.566 132.441,201.291 132.458 C 203.287 132.466,204.282 132.610,205.144 133.018 C 207.063 133.925,207.189 133.717,206.997 129.967 L 206.830 126.696 207.746 126.106 C 209.185 125.178,208.353 124.429,206.476 124.964 M185.767 125.282 C 186.132 125.352,186.729 125.352,187.094 125.282 C 187.459 125.212,187.161 125.154,186.431 125.154 C 185.701 125.154,185.402 125.212,185.767 125.282 M178.024 125.871 C 176.855 126.171,176.776 126.442,177.285 128.385 C 177.552 129.403,177.982 130.701,178.240 131.268 C 178.498 131.836,178.889 132.823,179.109 133.461 C 179.662 135.068,180.761 135.368,182.068 134.268 C 182.894 133.573,183.334 133.461,185.823 133.308 L 188.643 133.136 186.275 133.087 L 183.907 133.038 183.113 131.195 C 182.676 130.181,182.147 128.555,181.936 127.581 L 181.552 125.811 180.083 125.765 C 179.275 125.740,178.348 125.787,178.024 125.871 M223.363 139.248 C 223.168 139.560,223.009 139.972,223.009 140.165 C 223.009 140.357,222.813 140.730,222.574 140.995 C 221.880 141.761,221.413 145.728,221.952 146.268 C 222.461 146.776,222.581 146.402,222.825 143.549 C 222.931 142.314,223.148 141.655,223.581 141.251 C 224.180 140.693,224.422 139.117,223.953 138.827 C 223.823 138.747,223.558 138.936,223.363 139.248 M205.310 139.614 C 204.328 140.111,203.859 141.647,203.806 144.545 C 203.754 147.404,204.025 147.853,205.727 147.728 L 206.932 147.640 207.015 144.217 C 207.125 139.654,206.826 138.848,205.310 139.614 M182.301 141.748 C 182.301 142.585,182.444 142.842,183.038 143.068 C 183.653 143.301,183.776 143.542,183.776 144.511 C 183.776 146.306,184.490 147.306,185.084 146.344 C 185.348 145.916,184.695 143.004,184.216 142.475 C 183.974 142.208,183.776 141.781,183.776 141.528 C 183.776 141.098,183.202 140.708,182.572 140.708 C 182.423 140.708,182.301 141.176,182.301 141.748 M36.652 190.873 L 37.463 191.750 37.480 200.078 L 37.497 208.407 38.292 210.024 C 39.695 212.882,43.267 213.141,45.034 210.512 L 45.855 209.292 45.961 200.442 C 46.081 190.511,46.082 190.509,48.139 189.955 C 50.215 189.396,52.369 189.828,53.246 190.978 L 53.982 191.944 53.982 199.687 C 53.982 208.086,53.416 212.703,52.227 214.012 C 51.932 214.336,51.602 214.894,51.494 215.251 C 51.300 215.888,49.093 217.909,47.935 218.508 C 44.492 220.290,36.552 219.960,34.260 217.940 C 32.484 216.375,31.624 215.403,31.417 214.728 C 31.297 214.334,31.006 213.792,30.771 213.524 C 29.614 212.204,29.368 192.145,30.487 190.438 C 31.296 189.204,35.374 189.492,36.652 190.873 M74.329 190.542 C 77.857 191.349,80.569 193.033,82.166 195.408 C 87.292 203.029,84.272 213.730,75.811 217.929 L 73.599 219.027 66.620 219.127 C 58.514 219.244,58.603 219.272,58.267 216.470 C 57.777 212.396,58.233 191.537,58.826 190.882 C 60.100 189.474,68.823 189.283,74.329 190.542 M93.982 190.588 C 94.566 191.137,94.629 191.549,94.744 195.613 C 94.896 200.949,94.523 200.580,99.755 200.585 C 105.191 200.592,104.720 201.024,104.720 196.026 C 104.720 192.230,104.779 191.745,105.326 191.050 C 106.568 189.470,110.471 189.294,111.844 190.755 L 112.537 191.492 112.627 203.490 C 112.749 219.780,112.895 219.174,108.830 219.174 C 104.929 219.174,104.720 218.828,104.720 212.367 L 104.720 208.007 103.070 207.801 C 101.175 207.564,95.382 207.764,95.069 208.078 C 94.954 208.193,94.809 210.438,94.747 213.067 C 94.601 219.277,94.662 219.174,91.144 219.174 C 86.962 219.174,87.316 220.517,87.316 204.624 L 87.316 191.253 87.979 190.638 C 89.196 189.509,92.802 189.479,93.982 190.588 M132.715 190.654 C 133.444 191.137,133.990 191.764,134.110 192.257 C 134.219 192.703,134.686 194.019,135.148 195.182 C 135.610 196.345,135.988 197.514,135.988 197.781 C 135.988 198.048,136.311 198.955,136.705 199.797 C 137.099 200.639,137.517 201.851,137.633 202.490 C 137.750 203.130,138.081 204.059,138.370 204.555 C 138.659 205.051,138.989 205.988,139.105 206.637 C 139.220 207.286,139.563 208.171,139.867 208.604 C 140.171 209.038,140.544 210.051,140.697 210.857 C 140.850 211.663,141.313 212.820,141.726 213.429 C 142.140 214.038,142.478 214.739,142.478 214.987 C 142.478 216.032,143.082 214.748,144.880 209.882 C 145.359 208.584,146.007 206.726,146.320 205.752 C 146.632 204.779,147.019 203.717,147.178 203.392 C 147.521 202.694,148.825 198.934,149.377 197.050 C 149.591 196.320,150.051 195.194,150.399 194.547 C 150.747 193.901,151.032 193.197,151.032 192.984 C 151.032 189.485,160.169 188.335,161.375 191.682 C 161.533 192.120,161.909 192.942,162.211 193.510 C 162.513 194.078,162.853 195.074,162.968 195.723 C 163.083 196.372,163.413 197.301,163.702 197.788 C 163.991 198.274,164.388 199.336,164.584 200.147 C 164.781 200.959,165.112 201.822,165.320 202.065 C 165.528 202.308,165.856 203.156,166.049 203.948 C 166.242 204.741,166.640 205.869,166.932 206.456 C 167.225 207.042,167.622 208.165,167.814 208.951 C 168.007 209.736,168.340 210.666,168.555 211.016 C 168.771 211.366,169.120 212.316,169.331 213.127 C 169.542 213.938,169.891 214.864,170.108 215.184 C 171.662 217.481,170.077 219.174,166.372 219.174 C 163.310 219.174,162.356 218.661,162.068 216.863 C 161.972 216.265,161.536 215.245,161.098 214.598 L 160.301 213.422 157.215 213.165 C 153.446 212.850,152.264 213.314,151.655 215.348 C 151.201 216.863,150.222 218.523,149.581 218.867 C 148.995 219.180,136.273 219.238,135.774 218.929 C 135.103 218.514,133.920 216.472,133.589 215.158 C 133.187 213.560,132.797 213.361,129.571 213.110 C 125.352 212.781,124.569 213.321,122.982 217.650 C 122.521 218.909,121.786 219.174,118.752 219.174 C 114.950 219.174,114.074 218.151,115.513 215.393 C 115.740 214.958,115.926 214.331,115.927 214.000 C 115.928 213.670,116.194 212.880,116.517 212.246 C 116.840 211.612,117.309 210.295,117.559 209.320 C 117.809 208.345,118.208 207.332,118.446 207.069 C 118.684 206.806,118.879 206.375,118.879 206.111 C 118.879 205.847,119.220 204.730,119.637 203.627 C 120.053 202.524,120.520 201.119,120.673 200.504 C 120.827 199.889,121.205 198.827,121.515 198.144 C 121.824 197.461,122.289 196.173,122.549 195.280 C 123.871 190.733,125.236 189.583,129.107 189.755 C 131.122 189.845,131.715 189.993,132.715 190.654 M188.048 190.564 C 194.535 192.382,196.608 200.364,191.617 204.312 C 189.607 205.902,189.462 206.386,190.623 207.628 C 191.175 208.219,192.005 209.299,192.468 210.029 C 192.932 210.760,193.687 211.910,194.148 212.585 C 194.608 213.261,194.985 213.900,194.985 214.006 C 194.985 214.112,195.317 214.634,195.723 215.166 C 197.637 217.676,196.512 219.174,192.712 219.174 C 189.460 219.174,188.486 218.793,187.611 217.177 C 187.283 216.572,186.425 215.147,185.703 214.012 C 184.981 212.876,184.380 211.814,184.367 211.652 C 184.308 210.913,182.405 209.172,181.563 209.087 L 180.678 208.997 180.522 213.529 C 180.329 219.147,180.309 219.174,176.532 219.174 C 174.359 219.174,173.978 219.091,173.247 218.462 L 172.419 217.751 172.333 204.911 L 172.248 192.071 173.075 191.145 C 174.569 189.473,182.987 189.146,188.048 190.564 M225.221 190.555 C 231.327 192.039,234.173 195.167,235.269 201.597 C 236.600 209.407,231.571 217.268,224.238 218.841 C 220.963 219.543,210.771 219.276,209.825 218.462 L 208.997 217.751 208.911 204.846 L 208.826 191.941 209.765 190.971 C 210.931 189.769,211.326 189.710,217.552 189.821 C 221.475 189.890,223.144 190.050,225.221 190.555 M244.074 190.088 C 245.572 190.714,245.565 190.671,245.723 200.442 L 245.870 209.587 246.737 210.670 C 247.883 212.103,249.436 212.545,251.451 212.010 C 253.952 211.347,254.243 210.100,254.262 199.966 C 254.277 192.208,254.306 191.783,254.883 191.050 C 256.125 189.471,260.028 189.294,261.401 190.755 C 262.632 192.063,262.528 210.504,261.278 212.839 C 261.019 213.322,260.612 214.115,260.373 214.602 C 259.465 216.449,256.808 218.536,254.625 219.117 C 249.867 220.383,244.504 219.630,242.061 217.354 C 241.742 217.057,241.396 216.814,241.291 216.814 C 240.625 216.814,238.910 213.443,238.222 210.780 C 237.499 207.982,237.463 207.471,237.463 199.944 L 237.463 192.045 238.279 191.132 C 239.489 189.778,242.174 189.294,244.074 190.088 M272.332 189.982 C 274.288 190.526,274.631 191.315,274.631 195.271 C 274.631 197.169,274.705 198.796,274.796 198.886 C 275.000 199.091,276.991 197.071,276.991 196.659 C 276.991 196.494,277.219 196.107,277.497 195.800 C 277.776 195.492,278.274 194.805,278.604 194.274 C 280.283 191.569,280.687 191.083,281.674 190.583 C 286.334 188.222,291.309 190.699,288.292 193.878 C 287.791 194.406,287.164 195.269,286.899 195.796 C 286.633 196.324,286.286 196.755,286.128 196.755 C 285.970 196.755,285.841 196.934,285.841 197.152 C 285.841 197.370,285.561 197.802,285.219 198.111 C 284.878 198.420,284.344 199.137,284.034 199.705 C 283.724 200.273,283.021 201.335,282.471 202.065 C 281.426 203.453,281.349 204.357,282.193 205.333 C 282.415 205.589,282.596 205.882,282.596 205.983 C 282.596 206.085,283.274 207.070,284.102 208.172 C 284.931 209.275,285.684 210.376,285.775 210.619 C 285.932 211.039,286.607 211.905,288.481 214.090 C 289.666 215.474,290.773 214.690,291.259 212.124 C 291.363 211.572,291.697 210.576,292.002 209.911 C 292.306 209.246,292.765 208.038,293.022 207.227 C 294.099 203.823,296.459 197.282,297.173 195.723 C 297.396 195.236,297.674 194.373,297.791 193.805 C 298.101 192.297,298.830 191.195,300.000 190.466 C 302.273 189.050,308.260 189.817,308.260 191.524 C 308.260 191.673,308.514 192.118,308.825 192.514 C 309.136 192.909,309.482 193.793,309.594 194.478 C 309.705 195.162,310.031 196.121,310.316 196.608 C 310.602 197.094,310.986 198.116,311.170 198.877 C 311.354 199.638,311.760 200.700,312.073 201.237 C 312.385 201.773,312.733 202.743,312.846 203.392 C 312.959 204.041,313.286 204.971,313.573 205.457 C 313.861 205.944,314.191 206.807,314.308 207.375 C 314.425 207.942,314.829 209.071,315.204 209.882 C 315.580 210.693,315.977 211.848,316.086 212.449 C 316.255 213.378,317.188 214.454,317.825 214.454 C 317.905 214.454,318.175 213.768,318.424 212.929 C 318.673 212.090,319.055 211.128,319.272 210.790 C 319.489 210.453,319.830 209.513,320.030 208.702 C 320.229 207.891,320.578 206.941,320.805 206.591 C 321.031 206.241,321.374 205.312,321.566 204.526 C 321.759 203.740,322.148 202.632,322.432 202.063 C 322.715 201.494,323.105 200.433,323.297 199.703 C 323.489 198.974,323.818 198.110,324.027 197.783 C 324.236 197.456,324.503 196.726,324.620 196.161 C 324.809 195.252,325.843 192.683,326.517 191.445 C 328.188 188.381,335.751 189.376,336.743 192.791 C 336.998 193.667,337.318 194.453,337.453 194.536 C 337.588 194.620,337.863 195.386,338.063 196.238 C 338.263 197.090,338.618 198.164,338.851 198.625 C 339.331 199.572,340.473 202.795,341.287 205.500 C 341.588 206.496,342.034 207.625,342.281 208.007 C 342.527 208.389,342.932 209.432,343.182 210.324 C 343.431 211.217,343.969 212.876,344.377 214.012 C 345.887 218.222,345.301 219.174,341.195 219.174 C 337.796 219.174,336.896 218.476,336.013 215.153 C 335.566 213.472,334.634 213.122,330.759 213.181 C 327.237 213.234,326.638 213.627,325.794 216.439 C 324.994 219.101,324.875 219.140,317.490 219.142 C 309.419 219.145,309.362 219.120,308.694 215.320 C 308.399 213.643,307.097 213.112,303.474 213.189 C 299.782 213.268,299.141 213.649,298.437 216.180 C 297.605 219.174,297.605 219.174,289.511 219.174 L 282.641 219.174 281.706 218.387 C 281.192 217.955,280.457 217.125,280.073 216.544 C 279.689 215.962,278.839 214.710,278.183 213.761 C 277.528 212.812,276.991 211.941,276.991 211.827 C 276.991 211.713,276.528 211.114,275.962 210.496 C 274.691 209.109,274.686 209.122,274.573 214.112 C 274.461 219.046,274.362 219.174,270.673 219.174 C 266.557 219.174,266.670 219.602,266.668 204.100 L 266.667 192.123 267.341 191.121 C 268.237 189.792,270.108 189.365,272.332 189.982 M353.757 189.864 C 354.916 190.056,357.522 192.251,357.522 193.036 C 357.522 193.257,357.736 193.616,357.998 193.833 C 358.259 194.050,358.983 195.028,359.606 196.008 C 360.229 196.987,361.018 198.186,361.359 198.673 C 362.408 200.170,364.012 202.772,364.012 202.977 C 364.012 203.083,364.476 203.678,365.044 204.298 L 366.077 205.425 366.094 199.689 C 366.122 190.568,366.271 190.189,369.965 189.818 C 372.063 189.607,372.102 189.616,372.771 190.451 L 373.448 191.298 373.450 204.580 C 373.452 220.449,373.763 219.174,369.880 219.174 C 366.386 219.174,365.783 218.858,364.163 216.172 C 363.999 215.900,363.300 214.872,362.611 213.889 C 361.921 212.906,361.357 211.983,361.357 211.839 C 361.357 211.695,361.156 211.410,360.911 211.207 C 360.666 211.003,360.204 210.290,359.884 209.622 C 359.565 208.954,358.836 207.810,358.265 207.080 C 357.694 206.350,357.004 205.321,356.730 204.794 C 355.482 202.387,355.059 203.846,354.878 211.182 C 354.674 219.429,354.749 219.274,351.017 219.129 C 347.008 218.972,347.360 220.308,347.263 204.884 L 347.180 191.794 347.869 190.992 C 348.800 189.911,351.226 189.446,353.757 189.864 M180.672 196.814 C 180.580 197.054,180.544 198.300,180.591 199.584 L 180.678 201.917 181.536 202.015 C 184.622 202.367,186.760 199.733,185.041 197.697 C 184.080 196.557,181.008 195.937,180.672 196.814 M66.685 197.679 C 66.016 198.776,65.752 209.432,66.355 211.018 C 66.806 212.205,68.507 212.460,71.234 211.750 C 77.095 210.225,77.781 200.374,72.206 197.801 C 69.305 196.462,67.451 196.421,66.685 197.679 M217.954 196.952 C 216.874 197.239,216.616 211.220,217.680 211.789 C 219.205 212.605,223.157 211.891,224.316 210.590 C 224.735 210.120,225.183 209.735,225.312 209.735 C 225.820 209.735,226.950 205.585,226.871 204.006 C 226.639 199.345,222.190 195.825,217.954 196.952 M330.405 201.519 C 330.219 202.414,329.807 203.632,329.488 204.227 C 328.323 206.400,328.587 206.824,331.047 206.724 C 332.769 206.654,333.166 206.551,333.084 206.195 C 333.028 205.951,332.840 204.956,332.666 203.982 C 332.493 203.009,332.125 201.947,331.850 201.622 C 331.574 201.298,331.213 200.776,331.046 200.463 C 330.789 199.980,330.691 200.143,330.405 201.519 M156.010 201.269 C 155.532 201.633,154.223 206.144,154.475 206.563 C 154.658 206.870,158.631 206.843,158.823 206.533 C 158.908 206.395,158.704 205.765,158.369 205.132 C 158.034 204.500,157.606 203.329,157.418 202.531 C 157.049 200.964,156.757 200.702,156.010 201.269 M302.719 202.286 C 301.028 206.244,301.151 206.785,303.742 206.785 L 305.680 206.785 305.488 205.584 C 305.383 204.924,305.115 204.094,304.893 203.740 C 304.672 203.387,304.333 202.600,304.140 201.991 C 303.681 200.546,303.441 200.595,302.719 202.286 M127.743 203.198 C 127.401 204.346,126.992 205.366,126.835 205.463 C 126.677 205.560,126.549 205.897,126.549 206.212 C 126.549 206.802,130.143 207.123,130.483 206.563 C 130.836 205.984,129.989 203.033,129.204 202.104 L 128.364 201.110 127.743 203.198 " stroke="none" fill="#fbfbfb" fill-rule="evenodd"></path><path id="path2" d="M198.041 72.139 C 196.722 73.458,197.518 78.376,199.115 78.771 C 200.817 79.191,196.675 79.877,191.298 80.065 C 184.631 80.298,184.843 80.149,184.538 84.849 C 184.423 86.611,184.137 90.277,183.902 92.996 C 183.247 100.561,183.071 100.362,190.874 100.836 C 193.720 101.009,196.439 101.301,196.918 101.486 C 197.396 101.670,200.177 101.942,203.097 102.088 C 206.018 102.235,210.066 102.613,212.094 102.928 C 217.967 103.840,219.316 103.907,219.833 103.310 C 220.398 102.658,221.434 98.388,221.674 95.723 C 221.777 94.587,222.116 92.644,222.428 91.405 C 222.740 90.166,223.131 87.953,223.298 86.486 C 223.464 85.020,223.780 83.114,224.001 82.251 C 224.679 79.603,223.786 78.495,221.313 78.913 C 218.578 79.376,207.387 79.632,205.176 79.283 C 202.877 78.920,202.844 78.904,204.127 78.761 C 205.658 78.591,205.930 78.202,206.513 75.354 C 207.215 71.924,206.589 71.386,201.890 71.386 C 198.964 71.386,198.752 71.428,198.041 72.139 M215.412 125.872 C 214.417 126.064,214.201 126.748,214.102 130.022 C 213.984 133.935,213.794 133.786,218.860 133.732 C 224.390 133.673,224.232 133.800,225.018 128.768 C 225.497 125.698,225.428 125.654,220.235 125.704 C 217.948 125.726,215.778 125.802,215.412 125.872 M207.585 126.436 C 207.271 126.751,207.340 133.116,207.663 133.628 C 208.393 134.783,209.973 129.744,209.679 127.198 C 209.587 126.403,208.144 125.878,207.585 126.436 M215.111 137.967 C 213.977 138.185,213.534 139.293,213.199 142.750 C 212.785 147.019,212.678 146.903,216.998 146.903 C 221.079 146.903,221.343 146.735,221.660 143.935 C 221.777 142.904,222.061 141.607,222.293 141.053 C 222.524 140.499,222.714 139.531,222.714 138.902 L 222.714 137.758 219.248 137.798 C 217.341 137.820,215.480 137.896,215.111 137.967 M207.684 142.035 C 207.681 143.820,207.807 145.479,207.965 145.723 C 208.166 146.035,208.252 145.635,208.255 144.363 C 208.258 143.371,208.336 141.978,208.430 141.265 C 208.552 140.338,208.471 139.803,208.145 139.381 C 207.725 138.838,207.688 139.050,207.684 142.035 " stroke="none" fill="#e8b44c" fill-rule="evenodd"></path></g></svg>